# xmcd CD database file generated by Grip 3.0.7
# 
# Track frame offsets:
#       150
#       12078
#       31119
#       46335
#       63779
#       78424
#       94498
#       109519
#       127422
#       140774
#       155150
# 
# Disc length: 2671 seconds
# 
# Revision: 1
# Processed by: cddbd v1.5PL3 Copyright (c) Steve Scherf et al.
# Submitted via: Grip 3.0.7
# 
DISCID=920a6d0b
DTITLE=Brandon Silveira - That Boy Ain't Right
DYEAR=2003
DGENRE=Country
TTITLE0=Dusty Ol' Road
TTITLE1=Lonesome Wishin' Fool
TTITLE2=Heaven Needs Angels
TTITLE3=Now And Then
TTITLE4=Life Don't Get Much Better Than This
TTITLE5=Insane
TTITLE6=Countrys Being Wronged
TTITLE7=Fine Women
TTITLE8=Country Party
TTITLE9=Beer-Thirty
TTITLE10=Mistakes
EXTD=www.brandonsilveira.com\nAll Songs Copyright 2003 Brandon Selveira Mus
EXTD=ic and Trashbag Convertable Music
EXTT0=
EXTT1=
EXTT2=
EXTT3=
EXTT4=
EXTT5=
EXTT6=
EXTT7=
EXTT8=
EXTT9=
EXTT10=
PLAYORDER=
